<?xml version="1.0" encoding="utf-8"?>
<!-- Generator: Adobe Illustrator 21.1.0, SVG Export Plug-In . SVG Version: 6.00 Build 0)  -->
<svg version="1.1" id="Capa_1" xmlns="http://www.w3.org/2000/svg" xmlns:xlink="http://www.w3.org/1999/xlink" x="0px" y="0px"
	 viewBox="0 0 1920 560.1" style="enable-background:new 0 0 1920 560.1;" xml:space="preserve">
<style type="text/css">
	.st0{fill:#39A7DF;}
	.st1{fill:#F19106;}
	.st2{fill:#E5342A;}
	.st3{fill:#E3047D;}
	.st4{fill:#652580;}
	.st5{fill:#ffffff;}
	.st6{fill:#02728C;}
	.st7{fill:#ffffff;}
</style>
<g>
	<g>
		<g>
			<path class="st0" d="M1894.2,228c0,19-15.4,34.5-34.5,34.5c-19,0-34.5-15.4-34.5-34.5c0-19,15.4-34.5,34.5-34.5
				C1878.7,193.5,1894.2,208.9,1894.2,228"/>
			<path class="st1" d="M1747.7,49.2c0,23.4-19,42.4-42.4,42.4c-23.4,0-42.4-19-42.4-42.4c0-23.4,19-42.4,42.4-42.4
				C1728.7,6.9,1747.7,25.8,1747.7,49.2"/>
			<path class="st2" d="M1920,131.4c0,28.1-22.8,51-51,51c-28.2,0-51-22.8-51-51c0-28.2,22.8-51,51-51
				C1897.2,80.4,1920,103.2,1920,131.4"/>
			<path class="st3" d="M1810.3,26.6c0,14.7-11.9,26.6-26.6,26.6c-14.7,0-26.6-11.9-26.6-26.6c0-14.7,11.9-26.6,26.6-26.6
				C1798.4,0,1810.3,11.9,1810.3,26.6"/>
			<path class="st4" d="M1809.5,97.7c0,14.7-11.9,26.6-26.6,26.6c-14.7,0-26.6-11.9-26.6-26.6c0-14.7,11.9-26.6,26.6-26.6
				C1797.5,71,1809.5,83,1809.5,97.7"/>
			<path class="st5" d="M1481.6,269.8v-1.2c0-89.3,71-163.2,166.7-163.2c95.7,0,166.1,72.7,166.1,162v1.2
				c0,88.7-71,162.6-167.3,162.6C1552,431.2,1481.6,358.5,1481.6,269.8"/>
			<path class="st6" d="M1748.1,268.3c0,55.3-44.8,100.1-100.1,100.1S1548,323.6,1548,268.3c0-55.3,44.8-100.1,100.1-100.1
				S1748.1,213.1,1748.1,268.3"/>
			<path class="st5" d="M1282.4,105.2h-49.3c-0.3,0-0.5,0-0.8,0c-25,0-70.6,29.3-71.5,67.8v242.4v7.2v0.6h0.6h8.6h112.4
				c47.7,0,91.1-15,122-44.8c30.6-29.3,47.4-69.8,47.4-113.8v-0.9C1451.8,171.6,1380.6,105.2,1282.4,105.2 M1377.8,265.5
				c0,55.3-38.4,92.4-95.5,92.4h-50.2V171.3h50.2c57.1,0,95.5,37.6,95.5,93.3V265.5z"/>
			<path class="st5" d="M367.2,105.3c-47.3,0-80.4,21.9-105.3,55c-16.6-33-48.5-55-93.4-55c-47.8,0-75.1,26.1-95.2,53.8v-43
				c-0.3-7.4-7.1-10.7-15-8.2c-25.2,8.1-56.6,34-56.6,66.2h0v249.1h71.5V247.8c0-47.9,27.2-77.5,66.8-77.5
				c39.6,0,63.3,27.2,63.3,75.7v177.2h71.5V247.8c0-50.3,27.8-77.5,66.7-77.5c40.2,0,63.3,26.6,63.3,76.3v176.6h71.6V224.7
				C476.5,148.5,435.1,105.3,367.2,105.3"/>
			<path class="st5" d="M783.7,107.9c-25.1,7.7-56.7,33.2-57.3,65.3v114.4c0,48.5-29,76.9-70.3,76.9c-42.6,0-66.8-27.2-66.8-75.7
				V116c-0.4-7.2-7.1-10.5-14.7-8.1c-25.2,8.1-56.7,34-56.7,66.3h-0.1v135.9c0,72.8,40.8,120.1,111.1,120.1
				c48.5,0,77.5-25.5,97.6-55v47.8h72.2V116.3C798.3,108.9,791.5,105.5,783.7,107.9"/>
			<path class="st5" d="M1008.7,105.1c-48.5,0-77.5,25.4-97.6,54.4v-42.8c0,0,0,0,0-0.1c0-7.6-6.8-11.1-14.7-8.7
				c-25.2,8-56.8,34-56.8,66.3h0v248.9h71.5V247.6c0-48.5,29-77.4,70.4-77.4c42.5,0,66.8,27.8,66.8,76.3v176.7h71.5V224.5
				C1119.8,152.4,1079,105.1,1008.7,105.1"/>
			<polygon class="st7" points="19.4,495.4 0,495.4 0,489.4 45.4,489.4 45.4,495.4 26,495.4 26,547.2 19.4,547.2 			"/>
			<path class="st7" d="M73.2,523v-33.6h6.5v33.2c0,12.5,6.7,19.5,17.7,19.5c10.7,0,17.4-6.4,17.4-19.1v-33.6h6.5v33.1
				c0,16.8-9.7,25.6-24.1,25.6C83,548.1,73.2,539.3,73.2,523"/>
			<polygon class="st7" points="194.6,489.4 201.2,489.4 222.3,520.9 243.4,489.4 250,489.4 250,547.2 243.5,547.2 243.5,500.4 
				222.4,531.3 222.1,531.3 201,500.5 201,547.2 194.6,547.2 			"/>
			<path class="st7" d="M281.9,523v-33.6h6.5v33.2c0,12.5,6.7,19.5,17.7,19.5c10.7,0,17.4-6.4,17.4-19.1v-33.6h6.5v33.1
				c0,16.8-9.7,25.6-24.1,25.6C291.7,548.1,281.9,539.3,281.9,523"/>
			<polygon class="st7" points="362,489.4 368.1,489.4 404.6,535.7 404.6,489.4 410.9,489.4 410.9,547.2 405.7,547.2 368.4,499.8 
				368.4,547.2 362,547.2 			"/>
			<path class="st7" d="M443.8,489.4h20.1c18.2,0,30.7,12.5,30.7,28.7v0.2c0,16.3-12.6,28.9-30.7,28.9h-20.1V489.4z M450.3,495.4
				v45.8h13.5c14.6,0,24-9.9,24-22.7v-0.2c0-12.8-9.3-22.9-24-22.9H450.3z"/>
			<path class="st7" d="M522.3,518.5v-0.2c0-15.9,12-29.9,29.6-29.9c17.6,0,29.4,13.8,29.4,29.7v0.2c0,15.9-12,29.9-29.6,29.9
				C534.1,548.2,522.3,534.4,522.3,518.5 M574.5,518.5v-0.2c0-13.1-9.6-23.9-22.8-23.9c-13.2,0-22.6,10.6-22.6,23.7v0.2
				c0,13.1,9.6,23.9,22.8,23.9C565.1,542.2,574.5,531.6,574.5,518.5"/>
			<polygon class="st7" points="668.2,495.4 648.8,495.4 648.8,489.4 694.2,489.4 694.2,495.4 674.8,495.4 674.8,547.2 668.2,547.2 
							"/>
			<rect x="723.5" y="489.4" class="st7" width="6.5" height="57.8"/>
			<polygon class="st7" points="763.5,489.4 805.2,489.4 805.2,495.3 770,495.3 770,515.1 801.5,515.1 801.5,521 770,521 770,541.2 
				805.7,541.2 805.7,547.2 763.5,547.2 			"/>
			<polygon class="st7" points="835.3,489.4 841.4,489.4 877.8,535.7 877.8,489.4 884.2,489.4 884.2,547.2 879,547.2 841.7,499.8 
				841.7,547.2 835.3,547.2 			"/>
			<polygon class="st7" points="917.1,489.4 958.8,489.4 958.8,495.3 923.6,495.3 923.6,515.1 955.1,515.1 955.1,521 923.6,521 
				923.6,541.2 959.3,541.2 959.3,547.2 917.1,547.2 			"/>
			<path class="st7" d="M985.1,538.8l4-4.8c6,5.4,11.8,8.2,19.8,8.2c7.8,0,12.9-4.1,12.9-9.8v-0.2c0-5.4-2.9-8.4-15-11
				c-13.3-2.9-19.4-7.2-19.4-16.7v-0.2c0-9.1,8-15.8,19-15.8c8.4,0,14.5,2.4,20.3,7.1l-3.8,5c-5.4-4.4-10.7-6.3-16.7-6.3
				c-7.5,0-12.3,4.1-12.3,9.3v0.2c0,5.5,3,8.5,15.7,11.2c12.9,2.8,18.8,7.5,18.8,16.4v0.2c0,9.9-8.3,16.4-19.7,16.4
				C999.6,548,992,545,985.1,538.8"/>
			<path class="st7" d="M1152.3,548.9l-7.7-6.9c-4.9,3.8-11.1,6.1-18.2,6.1c-17.6,0-29.4-13.8-29.4-29.7v-0.2
				c0-15.9,12-29.9,29.6-29.9c17.6,0,29.4,13.8,29.4,29.7v0.2c0,7.2-2.6,14-6.9,19.3l7.6,6.4L1152.3,548.9z M1139.9,537.9l-10.8-9.2
				l4.4-4.9l10.8,9.8c3.1-4.1,4.9-9.3,4.9-15.1v-0.2c0-13.1-9.6-23.9-22.8-23.9c-13.2,0-22.6,10.6-22.6,23.7v0.2
				c0,13.1,9.6,23.9,22.8,23.9C1131.7,542.2,1136.3,540.6,1139.9,537.9"/>
			<path class="st7" d="M1185.4,523v-33.6h6.5v33.2c0,12.5,6.7,19.5,17.7,19.5c10.7,0,17.4-6.4,17.4-19.1v-33.6h6.5v33.1
				c0,16.8-9.7,25.6-24.1,25.6C1195.1,548.1,1185.4,539.3,1185.4,523"/>
			<polygon class="st7" points="1265.5,489.4 1307.3,489.4 1307.3,495.3 1272,495.3 1272,515.1 1303.5,515.1 1303.5,521 1272,521 
				1272,541.2 1307.7,541.2 1307.7,547.2 1265.5,547.2 			"/>
			<polygon class="st7" points="1373.7,489.4 1380.9,489.4 1401.5,539.2 1422.1,489.4 1429.1,489.4 1404.3,547.6 1398.5,547.6 			
				"/>
			<rect x="1457.6" y="489.4" class="st7" width="6.5" height="57.8"/>
			<polygon class="st7" points="1492.6,489.4 1499.9,489.4 1520.5,539.2 1541.1,489.4 1548.1,489.4 1523.3,547.6 1517.5,547.6 			
				"/>
			<rect x="1576.6" y="489.4" class="st7" width="6.5" height="57.8"/>
			<path class="st7" d="M1616.6,489.4h24.9c7.1,0,12.8,2.1,16.4,5.8c2.8,2.8,4.5,6.9,4.5,11.4v0.2c0,9.6-6.6,15.2-15.7,16.8
				l17.8,23.6h-8l-16.8-22.5h-16.5v22.5h-6.5V489.4z M1640.9,518.9c8.7,0,14.9-4.5,14.9-11.9v-0.2c0-7.1-5.5-11.4-14.8-11.4h-17.8
				v23.5H1640.9z"/>
			<polygon class="st7" points="1692.8,489.4 1699.4,489.4 1699.4,541.2 1731.9,541.2 1731.9,547.2 1692.8,547.2 			"/>
			<path class="st7" d="M1754.6,518.5v-0.2c0-15.9,12-29.9,29.6-29.9c17.6,0,29.4,13.8,29.4,29.7v0.2c0,15.9-12,29.9-29.6,29.9
				S1754.6,534.4,1754.6,518.5 M1806.8,518.5v-0.2c0-13.1-9.6-23.9-22.8-23.9c-13.2,0-22.6,10.6-22.6,23.7v0.2
				c0,13.1,9.6,23.9,22.8,23.9C1797.4,542.2,1806.8,531.6,1806.8,518.5"/>
		</g>
	</g>
</g>
</svg>
